<mxfile host="app.diagrams.net" modified="2022-08-02T12:45:31.021Z" agent="5.0 (Macintosh; Intel Mac OS X 10_15_7) AppleWebKit/537.36 (KHTML, like Gecko) Chrome/103.0.0.0 Safari/537.36" etag="_-xXrapVQiFHgwBiKDjJ" version="20.2.2" type="github">
  <diagram id="vFonY2iPgu989mAdxJTV" name="Page-1">
    <mxGraphModel dx="1426" dy="712" grid="1" gridSize="10" guides="1" tooltips="1" connect="1" arrows="1" fold="1" page="1" pageScale="1" pageWidth="850" pageHeight="1100" math="0" shadow="0">
      <root>
        <mxCell id="0" />
        <mxCell id="1" parent="0" />
        <mxCell id="C5dG1T_nxFUrHjw28qGK-4" style="edgeStyle=orthogonalEdgeStyle;rounded=0;orthogonalLoop=1;jettySize=auto;html=1;entryX=0.5;entryY=0;entryDx=0;entryDy=0;fontSize=16;" edge="1" parent="1" source="C5dG1T_nxFUrHjw28qGK-1" target="C5dG1T_nxFUrHjw28qGK-2">
          <mxGeometry relative="1" as="geometry">
            <Array as="points">
              <mxPoint x="458" y="190" />
              <mxPoint x="340" y="190" />
            </Array>
          </mxGeometry>
        </mxCell>
        <mxCell id="C5dG1T_nxFUrHjw28qGK-1" value="&lt;font style=&quot;font-size: 16px;&quot;&gt;&lt;b&gt;App&lt;/b&gt; { &lt;br&gt;&amp;nbsp; state: &lt;br&gt;&amp;nbsp; &amp;nbsp; {&lt;br&gt;&amp;nbsp; &amp;nbsp; &amp;nbsp; searchTerm: &quot;test&quot;}&lt;br&gt;&amp;nbsp; &amp;nbsp; }&lt;br&gt;}&lt;/font&gt;" style="rounded=0;whiteSpace=wrap;html=1;align=left;" vertex="1" parent="1">
          <mxGeometry x="365" y="30" width="185" height="130" as="geometry" />
        </mxCell>
        <mxCell id="C5dG1T_nxFUrHjw28qGK-2" value="SearchBox" style="rounded=0;whiteSpace=wrap;html=1;fontSize=16;" vertex="1" parent="1">
          <mxGeometry x="280" y="250" width="120" height="60" as="geometry" />
        </mxCell>
        <mxCell id="C5dG1T_nxFUrHjw28qGK-3" value="SearchResults" style="rounded=0;whiteSpace=wrap;html=1;fontSize=16;" vertex="1" parent="1">
          <mxGeometry x="500" y="250" width="120" height="60" as="geometry" />
        </mxCell>
        <mxCell id="C5dG1T_nxFUrHjw28qGK-5" style="edgeStyle=orthogonalEdgeStyle;rounded=0;orthogonalLoop=1;jettySize=auto;html=1;entryX=0.5;entryY=0;entryDx=0;entryDy=0;fontSize=16;" edge="1" parent="1" target="C5dG1T_nxFUrHjw28qGK-3">
          <mxGeometry relative="1" as="geometry">
            <mxPoint x="460" y="160" as="sourcePoint" />
            <mxPoint x="610" y="220" as="targetPoint" />
            <Array as="points">
              <mxPoint x="460" y="190" />
              <mxPoint x="560" y="190" />
            </Array>
          </mxGeometry>
        </mxCell>
      </root>
    </mxGraphModel>
  </diagram>
</mxfile>
